# xmcd
# 
# Track frame offsets:
#     182
#     12237
#     28582
#     44165
#     64755
#     92412
#     117985
#     138845
#     149840
#     189877
#     203602
#     215770
#     235570
#     259080
# 
# Disc length: 3645
# 
# Revision: 5
# Processed by: cddbd v1.5.2PL0 Copyright (c) Steve Scherf et al.
# Submitted via: BonkEnc v1.0.5
# 
DISCID=c70e3b0e
DTITLE=Lockwood Robert Jr. - I Got to Find Me a Woman
DYEAR=1998
DGENRE=Blues
TTITLE0=Walkin' Blues
TTITLE1=Take a Little Walk With Me
TTITLE2=Little Boy Blue
TTITLE3=Feel Like Blowing My Horn
TTITLE4=I Got to Find Me a Woman
TTITLE5=She's Little and She's Low
TTITLE6=Big Legged Woman
TTITLE7=Lockwood's Boogie
TTITLE8=My Daily Wish
TTITLE9=How Long, How Long Blues
TTITLE10=Kindhearted Woman Blues
TTITLE11=Every Day I Have the Blues
TTITLE12=Bob and B.
TTITLE13=For You My Love
EXTD=YEAR: 1996
EXTT0=
EXTT1=
EXTT2=
EXTT3=
EXTT4=
EXTT5=
EXTT6=
EXTT7=
EXTT8=
EXTT9=
EXTT10=
EXTT11=
EXTT12=
EXTT13=
PLAYORDER=
